<?xml version="1.0" encoding="UTF-8"?> <svg xmlns="http://www.w3.org/2000/svg" width="398" height="69" viewBox="0 0 398 69" fill="none"> <g clip-path="url(#clip0_455_2)"> <path d="M0.00537109 68.448L43.1007 0H53.4447L49.5551 15.5724L33.7432 40.8828H41.3391L43.3825 37.3455L53.797 48.0418L32.4466 56.3142L34.5465 52.6783H27.1901L16.5079 68.448H0.00537109Z" fill="#EC782F"></path> <path d="M106.489 17.1785C106.489 23.8021 105.052 30.327 102.389 36.3163C101.402 38.5289 100.063 40.6569 98.4144 42.6298C96.7797 44.6028 94.7362 46.3785 92.3123 47.8864C89.8883 49.3943 86.9994 50.6063 83.6876 51.4941C80.3758 52.382 75.7111 52.8329 71.3988 52.8329H65.2544L68.3125 40.6851H71.9625C75.3588 40.6851 78.6001 40.065 80.9818 38.4161C89.7897 32.2858 91.2835 17.1081 87.0275 13.754C85.5055 12.5561 82.7293 12.1052 78.9665 12.1052H75.5138L78.5438 0.0136719H83.1521C86.9289 0.0136719 90.2548 0.309618 93.1437 0.915601C96.0186 1.52159 98.4708 2.52216 100.43 3.87506C102.403 5.24204 103.925 7.03181 104.939 9.21617C105.954 11.4005 106.489 14.05 106.489 17.1785Z" fill="#F9F9F9"></path> <path d="M57.4611 68.2926H41.3955L44.8059 54.6368L59.0677 49.1125L48.8223 38.5853L58.4617 0.0136719H74.5696C68.8762 22.7874 63.2109 45.5611 57.4611 68.3066V68.2926Z" fill="#F9F9F9"></path> <path d="M118.919 35.8093H126.642L129.503 31.8634H137.691L138.395 35.8093H146.118L142.355 18.7149C141.862 16.5729 139.974 16.3896 137.789 16.3896C134.28 16.3896 133.068 17.2916 131.955 18.7149L118.891 35.8093H118.919ZM135.816 22.6186C135.915 22.4777 136.126 22.2099 136.225 22.2099C136.324 22.2099 136.38 22.4777 136.408 22.6186L137.127 27.4806H132.448L135.816 22.6186ZM150.698 16.6151L147.57 28.1429C147.034 30.0877 146.823 32.2016 148.373 33.8786C150.177 35.8234 153.432 36.0489 156.674 36.0489C159.915 36.0489 163.297 35.8234 166.158 33.8786C168.624 32.2016 169.554 30.0877 170.09 28.1429L173.218 16.6151H165.876L162.874 27.6497C162.663 28.4248 162.311 29.5945 161 30.3696C160.225 30.8064 159.055 31.0601 158.026 31.0601C156.984 31.0601 155.955 30.8064 155.419 30.3696C154.546 29.6226 154.785 28.5093 155.025 27.6497L158.026 16.6151H150.684H150.698ZM185.408 35.8234L189.34 21.3925H197.458L198.754 16.6151H175.177L173.881 21.3925H181.998L178.066 35.8234H185.408ZM212.607 16.4037C209.169 16.4037 205.082 16.4883 202.136 18.3767C199.149 20.2933 198.134 23.6474 197.429 26.2263C196.739 28.7489 195.922 32.1311 197.866 34.0759C199.755 35.9643 203.884 36.0489 207.266 36.0489C210.648 36.0489 214.82 35.9643 217.737 34.0759C220.739 32.1311 221.753 28.7489 222.43 26.2263C223.134 23.6474 223.952 20.3074 222.007 18.3767C220.09 16.4883 216.046 16.4037 212.607 16.4037ZM204.969 26.2263C205.406 24.6338 205.716 23.591 206.801 22.5763C208.126 21.308 209.422 21.1811 211.311 21.1811C213.227 21.1811 214.397 21.3221 215.059 22.5763C215.651 23.6474 215.369 24.5493 214.904 26.2263C214.482 27.7624 214.2 28.8335 213.072 29.8763C211.719 31.1447 210.479 31.2715 208.563 31.2715C206.717 31.2715 205.448 31.1306 204.814 29.8763C204.335 28.918 204.546 27.7342 204.969 26.2263Z" fill="#F9F9F9"></path> <path d="M229.124 35.8097L230.632 30.2713H240.215C241.455 30.2713 243.216 30.0036 244.499 29.2285C246.796 27.8333 247.825 24.5356 248.191 23.1968C248.952 20.4206 248.741 18.9127 247.923 17.9544C246.965 16.7988 245.33 16.6156 243.512 16.6156H230.942C229.377 16.6156 228.264 17.137 227.658 17.602C226.671 18.3489 226.249 19.4341 226.037 20.2374L221.795 35.8238H229.138L229.124 35.8097ZM231.928 25.4939L232.745 22.5063C232.858 22.0976 233.154 21.3789 234.324 21.3789H238.382C239.228 21.3789 240.074 21.3789 240.567 21.8157C241.032 22.2244 240.933 22.8304 240.806 23.3237C240.595 24.1128 240.215 24.6625 239.764 25.0007C239.003 25.5503 238.101 25.4939 237.199 25.4939H231.942H231.928ZM242.145 35.8097H249.868L252.729 31.8638H260.917L261.621 35.8097H269.344L265.581 18.7154C265.088 16.5733 263.2 16.3901 261.015 16.3901C257.506 16.3901 256.294 17.292 255.181 18.7154L242.117 35.8097H242.145ZM259.042 22.619C259.141 22.4781 259.352 22.2103 259.451 22.2103C259.55 22.2103 259.606 22.4781 259.634 22.619L260.353 27.481H255.674L259.042 22.619ZM271.289 35.8097H278.631L282.154 22.8868C282.281 22.4217 282.352 22.0412 282.901 21.6748C283.296 21.4071 283.704 21.3789 284.113 21.3789H288.172C288.848 21.3789 289.68 21.3507 290.088 21.8439C290.215 21.9849 290.483 22.4217 290.201 23.4646C290.06 23.9578 289.736 24.6765 289.285 25.057C288.623 25.5785 287.735 25.6348 287.087 25.6348H285.917C284.029 25.6348 282.394 26.5086 282.041 27.8051L281.929 28.2138C281.675 29.1439 282.267 29.9754 282.774 30.8209L285.804 35.8097H294.64L289.708 30.074L289.736 29.9613H290.708C292.456 29.9613 294.274 29.2707 295.585 27.5796C296.782 26.0153 297.473 23.7323 297.713 22.8586C298.107 21.4071 298.375 19.7018 297.741 18.4758C296.754 16.6156 294.26 16.6156 292.822 16.6156H280.449C279.575 16.6156 278.208 16.7565 277.137 17.5457C276.123 18.3208 275.756 19.4059 275.517 20.2937L271.289 35.8238V35.8097ZM310.41 35.8097L314.342 21.3789H322.459L323.756 16.6015H300.179L298.882 21.3789H307L303.068 35.8097H310.41ZM351.152 16.6015H345.501L342.386 28.0447C342.344 28.1856 342.259 28.5097 341.907 28.5097C341.653 28.5097 341.527 28.242 341.414 28.0447L335.819 18.1657C334.875 16.4887 332.733 16.376 331.493 16.376C328.857 16.376 326.151 17.2779 325.475 19.7723L321.12 35.7956H326.772L329.872 24.4088C330.027 23.8592 330.379 23.8592 330.478 23.8592C330.703 23.8592 330.858 24.1269 330.971 24.3242L336.524 34.1186C337.496 35.8238 339.229 36.007 340.949 36.007C345.726 36.007 346.628 33.259 346.811 32.5825L351.166 16.5874L351.152 16.6015ZM368.035 35.8097L369.303 31.1451H358.198C357.747 31.1451 357.155 31.1733 356.873 30.8914C356.747 30.7787 356.634 30.5673 356.747 30.1727L357.31 28.087H369.712L370.853 23.9155H358.452L358.846 22.464C358.917 22.2103 359.03 21.7735 359.452 21.5339C359.762 21.3366 360.242 21.2661 360.664 21.2661H371.896L373.165 16.6015H356.831C356.014 16.6015 354.886 16.7142 353.858 17.3766C352.829 18.0389 352.491 18.8281 352.279 19.575L348.7 32.7375C348.46 33.6395 348.249 34.4146 349.08 35.1474C349.799 35.7534 350.715 35.8097 351.659 35.8097H368.021H368.035ZM370.304 35.8097H377.646L381.155 22.8868C381.282 22.4217 381.352 22.0412 381.902 21.6748C382.297 21.4071 382.705 21.3789 383.114 21.3789H387.173C387.849 21.3789 388.681 21.3507 389.089 21.8439C389.216 21.9849 389.484 22.4217 389.202 23.4646C389.075 23.9578 388.751 24.6765 388.286 25.057C387.624 25.5785 386.736 25.6348 386.088 25.6348H384.918C383.029 25.6348 381.395 26.5086 381.042 27.8051L380.93 28.2138C380.676 29.1439 381.268 29.9754 381.775 30.8209L384.805 35.8097H393.641L388.709 30.074L388.737 29.9613H389.709C391.457 29.9613 393.275 29.2707 394.585 27.5796C395.783 26.0153 396.474 23.7323 396.713 22.8586C397.108 21.4071 397.376 19.7018 396.742 18.4758C395.755 16.6156 393.261 16.6156 391.823 16.6156H379.45C378.576 16.6156 377.209 16.7565 376.138 17.5457C375.123 18.3208 374.757 19.4059 374.517 20.2937L370.29 35.8238L370.304 35.8097Z" fill="#EC782F"></path> <path fill-rule="evenodd" clip-rule="evenodd" d="M397.404 44.5332H118.947L118.933 59.8519H397.39L397.404 44.5332ZM341.738 46.7739H342.95V56.2019H341.738V46.7739ZM283.521 47.1967H284.733V56.6247H283.521V47.1967ZM213.791 47.7886H215.003V57.2166H213.791V47.7886ZM126.036 55.6523H127.417L128.122 53.8907H131.476L132.194 55.6523H133.575L130.954 49.4093C130.7 48.8174 130.405 48.6201 129.813 48.6201C129.193 48.6201 128.925 48.8174 128.671 49.4093L126.05 55.6523H126.036ZM129.601 50.128C129.644 50.0293 129.714 49.8461 129.799 49.8461C129.883 49.8461 129.954 50.0293 129.996 50.128L131.123 52.9606H128.446L129.587 50.128H129.601ZM135.746 48.7046C135.52 48.7046 135.224 48.7469 135.013 48.9865C134.858 49.1697 134.787 49.4374 134.787 49.7052V54.6658C134.787 55.0604 134.956 55.2859 135.027 55.3705C135.309 55.6946 135.619 55.6523 135.971 55.6523H139.297C139.72 55.6523 140.171 55.6523 140.565 55.2013C140.96 54.7504 140.96 54.2008 140.96 53.7357C140.96 53.3552 140.96 52.8479 140.636 52.4955C140.467 52.3123 140.199 52.1573 139.875 52.1291V52.0869C140.128 52.0728 140.326 51.9741 140.537 51.7345C140.847 51.3681 140.861 50.9735 140.861 50.6071C140.861 50.1562 140.805 49.5079 140.424 49.1133C140.058 48.7328 139.537 48.6905 139.156 48.6905H135.746V48.7046ZM136.098 51.6218V50.128C136.098 50.0434 136.112 49.9025 136.183 49.8179C136.267 49.7334 136.366 49.7334 136.478 49.7334H138.621C138.832 49.7334 139.072 49.7334 139.269 49.9166C139.494 50.128 139.494 50.4662 139.494 50.6635C139.494 51.1427 139.396 51.3118 139.339 51.3681C139.156 51.6218 138.888 51.6218 138.621 51.6218H136.084H136.098ZM136.098 52.6647H138.761C139.184 52.6647 139.382 52.8479 139.466 52.9465C139.593 53.1297 139.621 53.4539 139.621 53.6511C139.621 53.8766 139.593 54.1726 139.438 54.3558C139.241 54.5954 138.874 54.6094 138.677 54.6094H136.605C136.507 54.6094 136.281 54.6235 136.183 54.4967C136.126 54.4403 136.098 54.3135 136.098 54.088V52.6647ZM146.216 55.6523V49.7475H148.936V48.7046H142.186V49.7475H144.892V55.6523H146.202H146.216ZM153.742 48.6201C152.896 48.6201 151.741 48.6201 150.966 49.3529C150.205 50.0716 150.162 51.2272 150.162 52.1714C150.162 52.9606 150.162 54.2149 150.966 54.9899C151.727 55.7228 152.91 55.7228 153.742 55.7228C154.531 55.7228 155.771 55.7228 156.518 54.9899C157.279 54.243 157.307 52.9183 157.307 52.1714C157.307 51.2554 157.223 50.0434 156.518 49.3529C155.757 48.6201 154.545 48.6201 153.742 48.6201ZM151.515 52.1714C151.515 51.1145 151.684 50.593 151.966 50.2407C152.417 49.677 153.122 49.6488 153.728 49.6488C154.306 49.6488 155.053 49.6629 155.504 50.2407C155.771 50.5789 155.94 51.1286 155.94 52.1714C155.94 53.2002 155.757 53.7639 155.504 54.088C155.053 54.6658 154.306 54.6799 153.728 54.6799C152.939 54.6799 152.361 54.6094 151.966 54.088C151.684 53.7216 151.515 53.1579 151.515 52.1714ZM167.215 55.6523V49.8743C167.215 49.522 167.2 48.6201 166.158 48.6201C165.678 48.6201 165.368 48.7751 165.002 49.3952L162.198 53.9894C162.141 54.088 162.085 54.2008 162.014 54.2008C161.888 54.2008 161.902 54.0457 161.902 53.8766L161.93 48.6905H160.619V54.5249C160.619 54.9195 160.633 55.7228 161.648 55.7228C162.353 55.7228 162.564 55.3705 162.747 55.0604L165.608 50.438C165.707 50.283 165.791 50.1139 165.862 50.1139C165.946 50.1139 165.96 50.2266 165.96 50.3394L165.918 55.6241H167.229L167.215 55.6523ZM169.23 55.6523H172.823C173.303 55.6523 173.923 55.6241 174.317 55.3705C174.909 55.004 174.937 54.2853 174.937 53.7921C174.937 53.2284 174.867 52.8761 174.74 52.6647C174.557 52.3405 174.204 52.1714 173.824 52.1432V52.101C174.049 52.0446 174.247 51.9459 174.416 51.7909C174.782 51.4386 174.81 51.0158 174.81 50.5649C174.81 50.0434 174.768 49.5079 174.388 49.1133C173.951 48.6764 173.387 48.6905 172.922 48.6905H169.272V49.7334H172.626C172.837 49.7334 173.063 49.7475 173.232 49.8884C173.472 50.0857 173.458 50.4098 173.458 50.6776C173.458 50.889 173.472 51.2131 173.288 51.3963C173.133 51.5513 172.823 51.6218 172.372 51.6218H169.357V52.6647H172.542C173.091 52.6647 173.274 52.8056 173.331 52.8479C173.57 53.0593 173.584 53.4116 173.584 53.6371C173.584 53.9189 173.57 54.2994 173.246 54.4826C173.035 54.5954 172.542 54.6094 172.429 54.6094H169.23V55.6523ZM183.9 55.6523V54.6094H181.547C180.729 54.6094 180.081 54.4967 179.729 53.9471C179.588 53.7216 179.405 53.2988 179.405 52.256C179.405 51.2272 179.588 50.6917 179.785 50.3957C180.18 49.8039 180.842 49.7475 181.617 49.7475H183.787V48.7046H180.997C180.504 48.7046 179.419 48.761 178.728 49.5784C178.136 50.2689 178.052 51.2836 178.052 52.2842C178.052 53.0452 178.108 54.1162 178.756 54.849C179.405 55.5677 180.307 55.6664 180.969 55.6664H183.9V55.6523ZM189.65 48.7046V54.6094H187.395C187.282 54.6094 187.17 54.6094 187.085 54.4967C187.015 54.3981 187.029 54.2712 187.029 54.1726V48.7046H185.718V54.7786C185.718 55.004 185.732 55.2295 185.944 55.4409C186.155 55.6382 186.409 55.6664 186.62 55.6664H193.991C194.117 55.6664 194.456 55.6523 194.681 55.4409C194.892 55.2295 194.892 54.9336 194.892 54.7786V48.7046H193.582V54.1726C193.582 54.2712 193.596 54.3981 193.526 54.4967C193.441 54.6094 193.328 54.6094 193.23 54.6094H190.961V48.7046H189.65ZM196.119 55.6523H197.5L198.204 53.8907H201.558L202.277 55.6523H203.658L201.037 49.4093C200.783 48.8174 200.487 48.6201 199.895 48.6201C199.275 48.6201 199.008 48.8174 198.754 49.4093L196.133 55.6523H196.119ZM199.684 50.128C199.726 50.0293 199.797 49.8461 199.881 49.8461C199.966 49.8461 200.036 50.0293 200.079 50.128L201.206 52.9606H198.528L199.67 50.128H199.684ZM230.35 55.6523V54.6094H226.629C226.418 54.6094 226.263 54.5954 226.178 54.5249C226.122 54.4685 226.08 54.3699 226.08 54.2571V52.6224H230.195V51.5795H226.08V50.1844C226.08 50.0857 226.08 49.9448 226.192 49.8461C226.291 49.7616 226.432 49.7475 226.545 49.7475H230.293V48.7046H225.84C225.572 48.7046 225.234 48.7187 225.008 48.9724C224.853 49.1415 224.769 49.4234 224.769 49.6911V54.6235C224.769 54.8913 224.783 55.2154 225.023 55.4409C225.248 55.6664 225.516 55.6664 225.812 55.6664H230.336L230.35 55.6523ZM233.126 48.7046C232.9 48.7046 232.604 48.7469 232.393 48.9865C232.238 49.1697 232.168 49.4374 232.168 49.7052V54.6658C232.168 55.0604 232.337 55.2859 232.407 55.3705C232.689 55.6946 232.999 55.6523 233.351 55.6523H236.677C237.1 55.6523 237.551 55.6523 237.946 55.2013C238.34 54.7504 238.34 54.2008 238.34 53.7357C238.34 53.3552 238.34 52.8479 238.016 52.4955C237.847 52.3123 237.579 52.1573 237.255 52.1291V52.0869C237.509 52.0728 237.706 51.9741 237.917 51.7345C238.227 51.3681 238.241 50.9735 238.241 50.6071C238.241 50.1562 238.185 49.5079 237.805 49.1133C237.438 48.7328 236.917 48.6905 236.536 48.6905H233.126V48.7046ZM233.478 51.6218V50.128C233.478 50.0434 233.492 49.9025 233.563 49.8179C233.647 49.7334 233.746 49.7334 233.859 49.7334H236.001C236.226 49.7334 236.452 49.7334 236.649 49.9166C236.874 50.128 236.874 50.4662 236.874 50.6635C236.874 51.1427 236.776 51.3118 236.719 51.3681C236.536 51.6218 236.269 51.6218 236.001 51.6218H233.464H233.478ZM233.478 52.6647H236.142C236.564 52.6647 236.762 52.8479 236.846 52.9465C236.973 53.1297 237.001 53.4539 237.001 53.6511C237.001 53.8766 236.973 54.1726 236.818 54.3558C236.621 54.5954 236.254 54.6094 236.057 54.6094H233.986C233.887 54.6094 233.661 54.6235 233.563 54.4967C233.506 54.4403 233.478 54.3135 233.478 54.088V52.6647ZM241.581 55.6523V53.1861H244.837C245.246 53.1861 245.64 53.0593 245.894 52.8479C246.443 52.3969 246.5 51.5091 246.5 50.9454C246.5 50.3535 246.457 49.5784 245.978 49.1133C245.556 48.6905 244.964 48.6905 244.597 48.6905H241.285C241.046 48.6905 240.722 48.7328 240.496 48.9583C240.257 49.1979 240.257 49.4797 240.257 49.7334V55.6382H241.567L241.581 55.6523ZM241.581 52.1432V50.1562C241.581 50.0434 241.581 49.9166 241.666 49.832C241.765 49.7334 241.891 49.7475 241.976 49.7475H244.09C244.301 49.7475 244.682 49.7616 244.907 49.9871C245.133 50.2125 245.161 50.6353 245.161 50.9454C245.161 51.2131 245.147 51.6641 244.935 51.9037C244.71 52.1573 244.372 52.1573 244.076 52.1573H241.581V52.1432ZM251.799 48.6201C250.953 48.6201 249.797 48.6201 249.022 49.3529C248.261 50.0716 248.219 51.2272 248.219 52.1714C248.219 52.9606 248.219 54.2149 249.022 54.9899C249.783 55.7228 250.967 55.7228 251.799 55.7228C252.588 55.7228 253.828 55.7228 254.575 54.9899C255.336 54.243 255.364 52.9183 255.364 52.1714C255.364 51.2554 255.279 50.0434 254.575 49.3529C253.814 48.6201 252.602 48.6201 251.799 48.6201ZM249.572 52.1714C249.572 51.1145 249.741 50.593 250.023 50.2407C250.474 49.677 251.179 49.6488 251.785 49.6488C252.362 49.6488 253.109 49.6629 253.56 50.2407C253.828 50.5789 253.997 51.1286 253.997 52.1714C253.997 53.2002 253.814 53.7639 253.56 54.088C253.109 54.6658 252.362 54.6799 251.785 54.6799C250.995 54.6799 250.418 54.6094 250.023 54.088C249.741 53.7216 249.572 53.1579 249.572 52.1714ZM261.748 49.7334C261.833 49.7334 261.974 49.7193 262.072 49.8179C262.157 49.9025 262.157 50.0434 262.157 50.1421V55.6382H263.467V49.6347C263.467 49.3952 263.425 49.1415 263.214 48.9442C262.974 48.7046 262.706 48.6905 262.424 48.6905H258.309C257.985 48.6905 257.774 48.7046 257.52 48.9442C257.295 49.1697 257.267 49.3952 257.267 49.6347V55.6382H258.577V50.1421C258.577 50.0293 258.591 49.8884 258.662 49.8179C258.746 49.7193 258.873 49.7334 258.986 49.7334H261.748ZM265.567 48.6905V54.5954C265.567 54.849 265.595 55.145 265.793 55.3705C265.877 55.455 266.06 55.6523 266.413 55.6523H270.105C270.951 55.6523 271.345 55.2295 271.472 55.0463C271.528 54.9759 271.796 54.5672 271.796 53.5948C271.796 53.1015 271.726 52.5519 271.542 52.2137C271.19 51.5936 270.514 51.5513 270.175 51.5513H266.878V48.7046H265.567V48.6905ZM266.878 52.5801H269.499C269.739 52.5801 269.978 52.566 270.161 52.7069C270.429 52.9042 270.443 53.2284 270.443 53.5384C270.443 53.8203 270.443 54.2008 270.19 54.3981C269.964 54.5813 269.527 54.5813 269.429 54.5813H267.315C267.174 54.5813 267.019 54.5813 266.934 54.4685C266.878 54.384 266.878 54.2149 266.878 54.1444V52.5519V52.5801ZM273.854 55.6382V48.6905H272.543V55.6382H273.854ZM293.555 55.6382H294.866V48.6905H293.555V55.6382ZM300.207 55.6382L296.923 52.7069C296.726 52.5237 296.472 52.2842 296.472 52.0728C296.472 51.9178 296.613 51.7486 296.839 51.5372L299.84 48.6905H298.22L295.584 51.2977C295.246 51.6359 295.204 51.9459 295.204 52.0869C295.204 52.2701 295.274 52.6083 295.683 52.9747L298.544 55.6523H300.207V55.6382ZM304.801 48.606C303.956 48.606 302.8 48.606 302.025 49.3388C301.264 50.0575 301.222 51.2131 301.222 52.1573C301.222 52.9465 301.222 54.2008 302.025 54.9759C302.786 55.7087 303.97 55.7087 304.801 55.7087C305.59 55.7087 306.83 55.7087 307.577 54.9759C308.338 54.2289 308.367 52.9042 308.367 52.1573C308.367 51.2413 308.282 50.0293 307.577 49.3388C306.816 48.606 305.604 48.606 304.801 48.606ZM302.574 52.1573C302.574 51.1004 302.744 50.5789 303.025 50.2266C303.476 49.6629 304.181 49.6347 304.787 49.6347C305.365 49.6347 306.112 49.6488 306.563 50.2266C306.83 50.5649 307 51.1145 307 52.1573C307 53.1861 306.816 53.7498 306.563 54.0739C306.112 54.6517 305.365 54.6658 304.787 54.6658C303.998 54.6658 303.42 54.5954 303.025 54.0739C302.744 53.7075 302.574 53.1438 302.574 52.1573ZM311.58 55.6382V53.172H314.835C315.244 53.172 315.638 53.0452 315.892 52.8338C316.442 52.3828 316.498 51.495 316.498 50.9313C316.498 50.3394 316.456 49.5643 315.977 49.0992C315.554 48.6764 314.962 48.6764 314.595 48.6764H311.284C311.044 48.6764 310.734 48.7187 310.495 48.9442C310.255 49.1838 310.255 49.4656 310.255 49.7193V55.6241H311.566L311.58 55.6382ZM311.58 52.1291V50.1421C311.58 50.0293 311.58 49.9025 311.664 49.8179C311.763 49.7193 311.876 49.7334 311.974 49.7334H314.088C314.314 49.7334 314.68 49.7475 314.906 49.973C315.131 50.1984 315.159 50.6212 315.159 50.9313C315.159 51.199 315.145 51.65 314.934 51.8896C314.708 52.1432 314.37 52.1432 314.074 52.1432H311.58V52.1291ZM323.995 55.6382V54.5954H320.275C320.063 54.5954 319.908 54.5813 319.824 54.5108C319.767 54.4544 319.725 54.3558 319.725 54.243V52.6083H323.84V51.5654H319.725V50.1703C319.725 50.0716 319.725 49.9307 319.838 49.832C319.937 49.7475 320.078 49.7334 320.19 49.7334H323.939V48.6905H319.486C319.218 48.6905 318.88 48.7046 318.654 48.9583C318.499 49.1274 318.415 49.4093 318.415 49.677V54.6094C318.415 54.8772 318.429 55.2013 318.668 55.4268C318.894 55.6523 319.161 55.6523 319.457 55.6523H323.981L323.995 55.6382ZM332.423 55.6382V49.8602C332.423 49.5079 332.409 48.606 331.366 48.606C330.887 48.606 330.577 48.761 330.21 49.3811L327.406 53.9753C327.349 54.0739 327.293 54.1867 327.222 54.1867C327.096 54.1867 327.11 54.0316 327.11 53.8625L327.138 48.6764H325.827V54.5108C325.827 54.9054 325.841 55.7087 326.856 55.7087C327.561 55.7087 327.772 55.3564 327.955 55.0463L330.816 50.4239C330.915 50.2689 330.999 50.0998 331.07 50.0998C331.154 50.0998 331.168 50.2125 331.168 50.3253L331.126 55.61H332.437L332.423 55.6382ZM352.124 55.6382H353.435V48.6905H352.124V55.6382ZM358.776 55.6382L355.492 52.7069C355.295 52.5237 355.041 52.2842 355.041 52.0728C355.041 51.9178 355.182 51.7486 355.408 51.5372L358.41 48.6905H356.789L354.154 51.2977C353.815 51.6359 353.773 51.9459 353.773 52.0869C353.773 52.2701 353.843 52.6083 354.252 52.9747L357.113 55.6523H358.776V55.6382ZM366.611 55.6382V49.8602C366.611 49.5079 366.597 48.606 365.554 48.606C365.075 48.606 364.765 48.761 364.399 49.3811L361.594 53.9753C361.538 54.0739 361.482 54.1867 361.411 54.1867C361.284 54.1867 361.299 54.0316 361.299 53.8625L361.327 48.6764H360.016V54.5108C360.016 54.9054 360.03 55.7087 361.045 55.7087C361.749 55.7087 361.961 55.3564 362.144 55.0463L365.005 50.4239C365.104 50.2689 365.188 50.0998 365.259 50.0998C365.343 50.0998 365.357 50.2125 365.357 50.3253L365.315 55.61H366.626L366.611 55.6382ZM372.051 55.6382V49.7334H374.771V48.6905H368.021V49.7334H370.726V55.6382H372.037H372.051ZM375.307 55.6382H376.688L377.392 53.8766H380.746L381.465 55.6382H382.846L380.225 49.3952C379.971 48.8033 379.675 48.606 379.083 48.606C378.463 48.606 378.196 48.8033 377.942 49.3952L375.321 55.6382H375.307ZM378.872 50.1139C378.914 50.0152 378.985 49.832 379.069 49.832C379.154 49.832 379.224 50.0152 379.267 50.1139L380.394 52.9465H377.716L378.858 50.1139H378.872ZM390.203 55.6382V49.7757C390.203 49.4515 390.188 49.212 389.921 48.9583C389.667 48.7187 389.371 48.6764 389.16 48.6764H385.749C385.157 48.6764 384.636 48.761 384.284 49.3106C383.959 49.8179 383.959 50.4098 383.959 50.8749C383.959 51.4527 383.988 52.0446 384.27 52.5237C384.509 52.9324 384.932 53.2143 385.481 53.2143H386.383V53.2566L383.762 55.6382H385.453L387.779 53.3693C388.032 53.1156 388.075 52.8901 388.075 52.7633V52.6083C388.075 52.1855 387.609 52.1855 387.483 52.1855H386.116C385.792 52.1855 385.566 52.0305 385.453 51.8332C385.355 51.6782 385.312 51.4104 385.312 50.9313C385.312 50.593 385.326 50.2125 385.552 49.973C385.763 49.7475 386.017 49.7475 386.228 49.7475H388.413C388.54 49.7475 388.652 49.7616 388.765 49.8602C388.878 49.973 388.906 50.0998 388.906 50.2125V55.6664H390.217L390.203 55.6382Z" fill="#EC782F"></path> </g> <defs> <clipPath id="clip0_455_2"> <rect width="397.41" height="68.448" fill="white"></rect> </clipPath> </defs> </svg> 